# xmcd
#
# Track frame offsets: 
#        150
#        23699
#        42358
#        56726
#        72745
#        95201
#
# Disc length: 1632 seconds
#
# Revision: 0
# Processed by: cddbd v1.5.2PL0 Copyright (c) Steve Scherf et al.
# Submitted via: ExactAudioCopy v1.3
#
DISCID=56065e06
DTITLE=Dirty Deep - Wrong Way I?m Going Home
DYEAR=2011
DGENRE=Blues Rock
TTITLE0=Long Way Home
TTITLE1=Tramp Blues
TTITLE2=Billy's Dream
TTITLE3=When Do You Believe In God
TTITLE4=Sad Memories
TTITLE5=It's So Sad To Be Alone
EXTD=
EXTT0=
EXTT1=
EXTT2=
EXTT3=
EXTT4=
EXTT5=
PLAYORDER=
